<svg width="621" height="174" viewBox="0 0 621 174" fill="none" xmlns="http://www.w3.org/2000/svg">
<path d="M23.5094 0.0879211L23.7071 111.227C23.7557 138.517 45.9186 160.602 73.2093 160.553V160.553L73.0116 49.4143C72.963 22.1235 50.8001 0.0393634 23.5094 0.0879211V0.0879211Z" fill="#335BFF"/>
<path d="M126.894 160.523L129.064 49.4049C129.597 22.1194 152.148 0.431912 179.434 0.964709V0.964709L177.264 112.082C176.731 139.368 154.18 161.055 126.894 160.523V160.523Z" fill="#335BFF"/>
<path d="M91.8088 107.907C96.4476 112.342 103.754 112.342 108.393 107.907L134.059 83.3711C139.003 78.645 139.003 70.7491 134.059 66.023L108.393 41.4867C103.754 37.0521 96.4476 37.0521 91.8088 41.4867L66.1425 66.023C61.1988 70.7491 61.1988 78.645 66.1425 83.3711L91.8088 107.907Z" fill="#1A2B67"/>
<rect x="17.2869" width="220.701" height="5.80702" rx="2.90351" transform="rotate(44.3847 17.2869 0)" fill="white"/>
<rect x="135.379" y="17.8741" width="80.6267" height="20.8359" rx="6" transform="rotate(44.3847 135.379 17.8741)" fill="white"/>
<rect x="17.2869" y="44.9265" width="159.184" height="24.7142" transform="rotate(44.3847 17.2869 44.9265)" fill="white"/>
<path d="M224.359 95.0156H213.156V120H199.094V51.75H224.453C232.516 51.75 238.734 53.5469 243.109 57.1406C247.484 60.7344 249.672 65.8125 249.672 72.375C249.672 77.0312 248.656 80.9219 246.625 84.0469C244.625 87.1406 241.578 89.6094 237.484 91.4531L252.25 119.344V120H237.156L224.359 95.0156ZM213.156 83.625H224.5C228.031 83.625 230.766 82.7344 232.703 80.9531C234.641 79.1406 235.609 76.6562 235.609 73.5C235.609 70.2812 234.688 67.75 232.844 65.9062C231.031 64.0625 228.234 63.1406 224.453 63.1406H213.156V83.625ZM282.859 120.938C275.422 120.938 269.359 118.656 264.672 114.094C260.016 109.531 257.688 103.453 257.688 95.8594V94.5469C257.688 89.4531 258.672 84.9062 260.641 80.9062C262.609 76.875 265.391 73.7812 268.984 71.625C272.609 69.4375 276.734 68.3438 281.359 68.3438C288.297 68.3438 293.75 70.5312 297.719 74.9062C301.719 79.2812 303.719 85.4844 303.719 93.5156V99.0469H271.422C271.859 102.359 273.172 105.016 275.359 107.016C277.578 109.016 280.375 110.016 283.75 110.016C288.969 110.016 293.047 108.125 295.984 104.344L302.641 111.797C300.609 114.672 297.859 116.922 294.391 118.547C290.922 120.141 287.078 120.938 282.859 120.938ZM281.312 79.3125C278.625 79.3125 276.438 80.2188 274.75 82.0312C273.094 83.8438 272.031 86.4375 271.562 89.8125H290.406V88.7344C290.344 85.7344 289.531 83.4219 287.969 81.7969C286.406 80.1406 284.188 79.3125 281.312 79.3125ZM334.797 120.938C327.359 120.938 321.297 118.656 316.609 114.094C311.953 109.531 309.625 103.453 309.625 95.8594V94.5469C309.625 89.4531 310.609 84.9062 312.578 80.9062C314.547 76.875 317.328 73.7812 320.922 71.625C324.547 69.4375 328.672 68.3438 333.297 68.3438C340.234 68.3438 345.688 70.5312 349.656 74.9062C353.656 79.2812 355.656 85.4844 355.656 93.5156V99.0469H323.359C323.797 102.359 325.109 105.016 327.297 107.016C329.516 109.016 332.312 110.016 335.688 110.016C340.906 110.016 344.984 108.125 347.922 104.344L354.578 111.797C352.547 114.672 349.797 116.922 346.328 118.547C342.859 120.141 339.016 120.938 334.797 120.938ZM333.25 79.3125C330.562 79.3125 328.375 80.2188 326.688 82.0312C325.031 83.8438 323.969 86.4375 323.5 89.8125H342.344V88.7344C342.281 85.7344 341.469 83.4219 339.906 81.7969C338.344 80.1406 336.125 79.3125 333.25 79.3125ZM377.688 120H364.094V48H377.688V120ZM418.281 120C417.656 118.781 417.203 117.266 416.922 115.453C413.641 119.109 409.375 120.938 404.125 120.938C399.156 120.938 395.031 119.5 391.75 116.625C388.5 113.75 386.875 110.125 386.875 105.75C386.875 100.375 388.859 96.25 392.828 93.375C396.828 90.5 402.594 89.0469 410.125 89.0156H416.359V86.1094C416.359 83.7656 415.75 81.8906 414.531 80.4844C413.344 79.0781 411.453 78.375 408.859 78.375C406.578 78.375 404.781 78.9219 403.469 80.0156C402.188 81.1094 401.547 82.6094 401.547 84.5156H388C388 81.5781 388.906 78.8594 390.719 76.3594C392.531 73.8594 395.094 71.9062 398.406 70.5C401.719 69.0625 405.438 68.3438 409.562 68.3438C415.812 68.3438 420.766 69.9219 424.422 73.0781C428.109 76.2031 429.953 80.6094 429.953 86.2969V108.281C429.984 113.094 430.656 116.734 431.969 119.203V120H418.281ZM407.078 110.578C409.078 110.578 410.922 110.141 412.609 109.266C414.297 108.359 415.547 107.156 416.359 105.656V96.9375H411.297C404.516 96.9375 400.906 99.2812 400.469 103.969L400.422 104.766C400.422 106.453 401.016 107.844 402.203 108.938C403.391 110.031 405.016 110.578 407.078 110.578ZM459.672 84.4219L468.203 69.2812H482.688L468.25 94.125L483.297 120H468.766L459.719 104.062L450.719 120H436.141L451.188 94.125L436.797 69.2812H451.328L459.672 84.4219ZM519.578 114.844C516.234 118.906 511.609 120.938 505.703 120.938C500.266 120.938 496.109 119.375 493.234 116.25C490.391 113.125 488.938 108.547 488.875 102.516V69.2812H502.422V102.047C502.422 107.328 504.828 109.969 509.641 109.969C514.234 109.969 517.391 108.375 519.109 105.188V69.2812H532.703V120H519.953L519.578 114.844ZM555.625 69.2812L556.047 74.9531C559.641 70.5469 564.5 68.3438 570.625 68.3438C577.156 68.3438 581.641 70.9219 584.078 76.0781C587.641 70.9219 592.719 68.3438 599.312 68.3438C604.812 68.3438 608.906 69.9531 611.594 73.1719C614.281 76.3594 615.625 81.1719 615.625 87.6094V120H602.031V87.6562C602.031 84.7812 601.469 82.6875 600.344 81.375C599.219 80.0312 597.234 79.3594 594.391 79.3594C590.328 79.3594 587.516 81.2969 585.953 85.1719L586 120H572.453V87.7031C572.453 84.7656 571.875 82.6406 570.719 81.3281C569.562 80.0156 567.594 79.3594 564.812 79.3594C560.969 79.3594 558.188 80.9531 556.469 84.1406V120H542.922V69.2812H555.625Z" fill="black"/>
</svg>
