<svg width="193" height="174" viewBox="0 0 193 174" fill="none" xmlns="http://www.w3.org/2000/svg">
<path d="M23.5094 0.0879211L23.7071 111.227C23.7557 138.517 45.9186 160.602 73.2093 160.553V160.553L73.0116 49.4143C72.963 22.1235 50.8001 0.0393634 23.5094 0.0879211V0.0879211Z" fill="#335BFF"/>
<path d="M126.894 160.523L129.064 49.4049C129.597 22.1194 152.148 0.431912 179.434 0.964709V0.964709L177.264 112.082C176.731 139.368 154.18 161.055 126.894 160.523V160.523Z" fill="#335BFF"/>
<path d="M91.8088 107.907C96.4476 112.342 103.754 112.342 108.393 107.907L134.059 83.3711C139.003 78.645 139.003 70.7491 134.059 66.023L108.393 41.4867C103.754 37.0521 96.4476 37.0521 91.8088 41.4867L66.1425 66.023C61.1988 70.7491 61.1988 78.645 66.1425 83.3711L91.8088 107.907Z" fill="#1A2B67"/>
<rect x="17.2869" width="220.701" height="5.80702" rx="2.90351" transform="rotate(44.3847 17.2869 0)" fill="white"/>
<rect x="135.379" y="17.8741" width="80.6267" height="20.8359" rx="6" transform="rotate(44.3847 135.379 17.8741)" fill="white"/>
<rect x="17.2869" y="44.9265" width="159.184" height="24.7142" transform="rotate(44.3847 17.2869 44.9265)" fill="white"/>
</svg>
