<svg width="417" height="73" viewBox="0 0 417 73" fill="none" xmlns="http://www.w3.org/2000/svg">
<path d="M25.3594 47.0156H14.1562V72H0.09375V3.75H25.4531C33.5156 3.75 39.7344 5.54687 44.1094 9.14062C48.4844 12.7344 50.6719 17.8125 50.6719 24.375C50.6719 29.0312 49.6562 32.9219 47.625 36.0469C45.625 39.1406 42.5781 41.6094 38.4844 43.4531L53.25 71.3438V72H38.1562L25.3594 47.0156ZM14.1562 35.625H25.5C29.0312 35.625 31.7656 34.7344 33.7031 32.9531C35.6406 31.1406 36.6094 28.6562 36.6094 25.5C36.6094 22.2812 35.6875 19.75 33.8438 17.9062C32.0312 16.0625 29.2344 15.1406 25.4531 15.1406H14.1562V35.625ZM83.8594 72.9375C76.4219 72.9375 70.3594 70.6562 65.6719 66.0938C61.0156 61.5312 58.6875 55.4531 58.6875 47.8594V46.5469C58.6875 41.4531 59.6719 36.9062 61.6406 32.9062C63.6094 28.875 66.3906 25.7812 69.9844 23.625C73.6094 21.4375 77.7344 20.3438 82.3594 20.3438C89.2969 20.3438 94.75 22.5312 98.7188 26.9062C102.719 31.2812 104.719 37.4844 104.719 45.5156V51.0469H72.4219C72.8594 54.3594 74.1719 57.0156 76.3594 59.0156C78.5781 61.0156 81.375 62.0156 84.75 62.0156C89.9688 62.0156 94.0469 60.125 96.9844 56.3438L103.641 63.7969C101.609 66.6719 98.8594 68.9219 95.3906 70.5469C91.9219 72.1406 88.0781 72.9375 83.8594 72.9375ZM82.3125 31.3125C79.625 31.3125 77.4375 32.2188 75.75 34.0312C74.0938 35.8438 73.0312 38.4375 72.5625 41.8125H91.4062V40.7344C91.3438 37.7344 90.5312 35.4219 88.9688 33.7969C87.4062 32.1406 85.1875 31.3125 82.3125 31.3125ZM135.797 72.9375C128.359 72.9375 122.297 70.6562 117.609 66.0938C112.953 61.5312 110.625 55.4531 110.625 47.8594V46.5469C110.625 41.4531 111.609 36.9062 113.578 32.9062C115.547 28.875 118.328 25.7812 121.922 23.625C125.547 21.4375 129.672 20.3438 134.297 20.3438C141.234 20.3438 146.688 22.5312 150.656 26.9062C154.656 31.2812 156.656 37.4844 156.656 45.5156V51.0469H124.359C124.797 54.3594 126.109 57.0156 128.297 59.0156C130.516 61.0156 133.312 62.0156 136.688 62.0156C141.906 62.0156 145.984 60.125 148.922 56.3438L155.578 63.7969C153.547 66.6719 150.797 68.9219 147.328 70.5469C143.859 72.1406 140.016 72.9375 135.797 72.9375ZM134.25 31.3125C131.562 31.3125 129.375 32.2188 127.688 34.0312C126.031 35.8438 124.969 38.4375 124.5 41.8125H143.344V40.7344C143.281 37.7344 142.469 35.4219 140.906 33.7969C139.344 32.1406 137.125 31.3125 134.25 31.3125ZM178.688 72H165.094V0H178.688V72ZM219.281 72C218.656 70.7812 218.203 69.2656 217.922 67.4531C214.641 71.1094 210.375 72.9375 205.125 72.9375C200.156 72.9375 196.031 71.5 192.75 68.625C189.5 65.75 187.875 62.125 187.875 57.75C187.875 52.375 189.859 48.25 193.828 45.375C197.828 42.5 203.594 41.0469 211.125 41.0156H217.359V38.1094C217.359 35.7656 216.75 33.8906 215.531 32.4844C214.344 31.0781 212.453 30.375 209.859 30.375C207.578 30.375 205.781 30.9219 204.469 32.0156C203.188 33.1094 202.547 34.6094 202.547 36.5156H189C189 33.5781 189.906 30.8594 191.719 28.3594C193.531 25.8594 196.094 23.9062 199.406 22.5C202.719 21.0625 206.438 20.3438 210.562 20.3438C216.812 20.3438 221.766 21.9219 225.422 25.0781C229.109 28.2031 230.953 32.6094 230.953 38.2969V60.2812C230.984 65.0938 231.656 68.7344 232.969 71.2031V72H219.281ZM208.078 62.5781C210.078 62.5781 211.922 62.1406 213.609 61.2656C215.297 60.3594 216.547 59.1562 217.359 57.6562V48.9375H212.297C205.516 48.9375 201.906 51.2812 201.469 55.9688L201.422 56.7656C201.422 58.4531 202.016 59.8438 203.203 60.9375C204.391 62.0312 206.016 62.5781 208.078 62.5781ZM260.672 36.4219L269.203 21.2812H283.688L269.25 46.125L284.297 72H269.766L260.719 56.0625L251.719 72H237.141L252.188 46.125L237.797 21.2812H252.328L260.672 36.4219ZM320.578 66.8438C317.234 70.9062 312.609 72.9375 306.703 72.9375C301.266 72.9375 297.109 71.375 294.234 68.25C291.391 65.125 289.938 60.5469 289.875 54.5156V21.2812H303.422V54.0469C303.422 59.3281 305.828 61.9688 310.641 61.9688C315.234 61.9688 318.391 60.375 320.109 57.1875V21.2812H333.703V72H320.953L320.578 66.8438ZM356.625 21.2812L357.047 26.9531C360.641 22.5469 365.5 20.3438 371.625 20.3438C378.156 20.3438 382.641 22.9219 385.078 28.0781C388.641 22.9219 393.719 20.3438 400.312 20.3438C405.812 20.3438 409.906 21.9531 412.594 25.1719C415.281 28.3594 416.625 33.1719 416.625 39.6094V72H403.031V39.6562C403.031 36.7812 402.469 34.6875 401.344 33.375C400.219 32.0312 398.234 31.3594 395.391 31.3594C391.328 31.3594 388.516 33.2969 386.953 37.1719L387 72H373.453V39.7031C373.453 36.7656 372.875 34.6406 371.719 33.3281C370.562 32.0156 368.594 31.3594 365.812 31.3594C361.969 31.3594 359.188 32.9531 357.469 36.1406V72H343.922V21.2812H356.625Z" fill="black"/>
</svg>
