<svg width="215" height="217" viewBox="0 0 215 217" fill="none" xmlns="http://www.w3.org/2000/svg">
<path d="M112 1.5H103C46.9431 1.5 1.5 46.9431 1.5 103V206C1.5 210.142 4.85787 213.5 9.00001 213.5H112C168.057 213.5 213.5 168.057 213.5 112V103C213.5 46.9431 168.057 1.5 112 1.5Z" fill="#6EF4CD" fill-opacity="0.08" stroke="#6EF4CD" stroke-width="3"/>
<path d="M26.5094 43.0879L26.7071 154.227C26.7557 181.517 48.9186 203.602 76.2093 203.553L76.0116 92.4143C75.963 65.1235 53.8001 43.0394 26.5094 43.0879Z" fill="#335BFF"/>
<path d="M129.894 203.523L132.064 92.4049C132.597 65.1194 155.148 43.4319 182.434 43.9647L180.264 155.082C179.731 182.368 157.18 204.055 129.894 203.523Z" fill="#335BFF"/>
<path d="M94.8088 150.907C99.4476 155.342 106.754 155.342 111.393 150.907L137.059 126.371C142.003 121.645 142.003 113.749 137.059 109.023L111.393 84.4867C106.754 80.0521 99.4476 80.0521 94.8088 84.4867L69.1425 109.023C64.1988 113.749 64.1988 121.645 69.1425 126.371L94.8088 150.907Z" fill="#1A2B67"/>
<rect x="20.2869" y="43" width="220.701" height="5.80702" rx="2.90351" transform="rotate(44.3847 20.2869 43)" fill="white"/>
<rect x="138.379" y="60.8741" width="80.6267" height="20.8359" rx="6" transform="rotate(44.3847 138.379 60.8741)" fill="white"/>
<rect x="20.2869" y="87.9265" width="159.184" height="24.7142" transform="rotate(44.3847 20.2869 87.9265)" fill="white"/>
</svg>
